# xmcd
#
# Track frame offsets: 
#        150
#        19975
#        33569
#        49582
#        69794
#        89650
#        109993
#        125893
#        159709
#        189439
#        211714
#        240148
#
# Disc length: 3587 seconds
#
# Revision: 1
# Processed by: cddbd v1.5.2PL0 Copyright (c) Steve Scherf et al.
# Submitted via: ExactAudioCopy v1.1
#
DISCID=9f0e010c
DTITLE=Mark Gillespie Band - Live At The Traumstern 97
DYEAR=1997
DGENRE=Pop
TTITLE0=The Chocolate Factory (live)
TTITLE1=Give It Time (live)
TTITLE2=It Used To Be Easy (live)
TTITLE3=Seven Days (live)
TTITLE4=Ain't No Sunshine (live)
TTITLE5=The Dark Side (live)
TTITLE6=I Don't Know What To Do (live)
TTITLE7=Little Wing (live)
TTITLE8=I Don't Want To Set The World On Fire (live)
TTITLE9=Jessie (live)
TTITLE10=Mad Markus (live)
TTITLE11=Five Seven (live)
EXTD=YEAR: 1997
EXTT0=
EXTT1=
EXTT2=
EXTT3=
EXTT4=
EXTT5=
EXTT6=
EXTT7=
EXTT8=
EXTT9=
EXTT10=
EXTT11=
PLAYORDER=
